# xmcd
#
# Track frame offsets:
# 182
# 11997
# 22522
# 33602
# 43605
# 54540
# 66627
# 75000
# 87947
# 99137
# 112585
# 124797
# 136382
# 148937
# 162222
# 171970
# 183895
# 194470
# 207800
# 219430
# 233245
# 250507
# 262767
# 274670
# 285982
# 297097
# 311380
# 323767
#
# Disc length: 4468 seconds
#
# Revision: 3
# Processed by: cddbd v1.5.2PL0 Copyright (c) Steve Scherf et al.
# Submitted via: Axialis_AX_CDPlayer 2.6
#
DISCID=7611721c
DTITLE=Hank Williams,Jr - Living Proof - The MGM Recordings - 1963 - 1975 - 
DTITLE=Disc \n2
DYEAR=1900
DGENRE=Country
TTITLE0=It's All Over But The Crying
TTITLE1=Somebody's Lonesome
TTITLE2=Wandering Astray
TTITLE3=Rock In My Shoe
TTITLE4=Homesick
TTITLE5=Cajun Baby
TTITLE6=You Broke Your Own Heart
TTITLE7=A House Of Gold
TTITLE8=The Chair That Rocked Us All
TTITLE9=A Baby Again
TTITLE10=I'd Rather Be Gone
TTITLE11=I Walked Out On Heaven
TTITLE12=(I've Got My) Future On Ice
TTITLE13=A - EEE
TTITLE14=Understand Your Man
TTITLE15=I'll Be Your Baby Tonight
TTITLE16=Ain't That A Shame
TTITLE17=Rainin' In My Heart
TTITLE18=I've Got A Right To Cry
TTITLE19=Rainy Night In Georgia
TTITLE20=All For The Love Of Sunshine
TTITLE21=Eleven Roses
TTITLE22=We Must Have Been Out Of Our Minds
TTITLE23=After All They All Used To Belong To Me
TTITLE24=No One's Sorrier Than Me
TTITLE25=Pride's Not Hard To Swallow
TTITLE26=The Last Love Song
TTITLE27=Cold Cold Ground
EXTD=
EXTT0=
EXTT1=
EXTT2=
EXTT3=
EXTT4=
EXTT5=
EXTT6=
EXTT7=
EXTT8=
EXTT9=
EXTT10=
EXTT11=
EXTT12=
EXTT13=
EXTT14=
EXTT15=
EXTT16=
EXTT17=
EXTT18=
EXTT19=
EXTT20=
EXTT21=
EXTT22=
EXTT23=
EXTT24=
EXTT25=
EXTT26=
EXTT27=
PLAYORDER=
